<svg width="9" height="8" viewBox="0 0 9 8" fill="none" xmlns="http://www.w3.org/2000/svg">
<path d="M7.30268 1.02907C7.44355 0.894958 7.631 0.820815 7.8255 0.822287C8.01999 0.823759 8.2063 0.900729 8.34512 1.03696C8.48395 1.17318 8.56442 1.35801 8.56956 1.55244C8.5747 1.74687 8.50411 1.9357 8.37268 2.07907L4.38268 7.06907C4.31407 7.14297 4.23126 7.20227 4.13921 7.24344C4.04716 7.2846 3.94775 7.30678 3.84693 7.30865C3.74611 7.31051 3.64595 7.29203 3.55243 7.2543C3.45892 7.21657 3.37398 7.16038 3.30268 7.08907L0.656677 4.44307C0.58299 4.37441 0.523888 4.29161 0.482896 4.19961C0.441904 4.10761 0.419862 4.00829 0.418085 3.90759C0.416309 3.80689 0.434834 3.70686 0.472555 3.61347C0.510276 3.52008 0.56642 3.43525 0.637639 3.36403C0.708858 3.29281 0.793691 3.23667 0.88708 3.19895C0.980468 3.16123 1.0805 3.1427 1.1812 3.14448C1.2819 3.14625 1.38122 3.1683 1.47322 3.20929C1.56521 3.25028 1.64802 3.30938 1.71668 3.38307L3.81068 5.47607L7.28368 1.05107L7.30268 1.02907Z" fill="#4BDBA3"/>
</svg>
